<svg version="1.1" id="Layer_1" xmlns="http://www.w3.org/2000/svg" xmlns:xlink="http://www.w3.org/1999/xlink" x="0px" y="0px"
	 width="211px" height="173px" viewBox="0 0 211 173" enable-background="new 0 0 211 173" xml:space="preserve">
<polyline fill="none" stroke="#D3DCF6" stroke-width="2.25" stroke-linecap="round" stroke-linejoin="round" stroke-miterlimit="10" points="
	48.112,142.742 48.078,141.73 47.986,140.727 47.827,139.732 47.61,138.754 47.326,137.783 46.982,136.83 46.581,135.91 
	46.129,135.007 45.611,134.137 45.042,133.301 44.423,132.506 43.763,131.754 43.043,131.034 42.291,130.373 41.496,129.754 
	40.66,129.186 39.79,128.667 38.887,128.216 37.967,127.814 37.014,127.472 36.043,127.188 35.065,126.97 34.07,126.811 
	33.066,126.719 32.054,126.685 31.042,126.719 30.039,126.811 29.043,126.97 28.065,127.188 27.095,127.472 26.142,127.814 
	25.222,128.216 24.318,128.667 23.448,129.186 22.612,129.754 21.818,130.373 21.065,131.034 20.346,131.754 19.685,132.506 
	19.066,133.301 18.498,134.137 17.979,135.007 17.527,135.91 17.126,136.83 16.783,137.783 16.499,138.754 16.281,139.732 
	16.123,140.727 16.031,141.73 15.997,142.742 16.031,143.755 16.123,144.758 16.281,145.754 16.499,146.732 16.783,147.702 
	17.126,148.655 17.527,149.575 17.979,150.479 18.498,151.349 19.066,152.185 19.685,152.979 20.346,153.732 21.065,154.451 
	21.818,155.111 22.612,155.73 23.448,156.299 24.318,156.818 25.222,157.27 26.142,157.671 27.095,158.014 28.065,158.299 
	29.043,158.516 30.039,158.674 31.042,158.767 32.054,158.8 33.066,158.767 34.07,158.674 35.065,158.516 36.043,158.299 
	37.014,158.014 37.967,157.671 38.887,157.27 39.79,156.818 40.66,156.299 41.496,155.73 42.291,155.111 43.043,154.451 
	43.763,153.732 44.423,152.979 45.042,152.185 45.611,151.349 46.129,150.479 46.581,149.575 46.982,148.655 47.326,147.702 
	47.61,146.732 47.827,145.754 47.986,144.758 48.078,143.755 48.112,142.742 "/>
<polyline fill="none" stroke="#0033CC" stroke-width="2.25" stroke-linecap="round" stroke-linejoin="round" stroke-miterlimit="10" points="
	48.112,88.8 48.078,87.788 47.986,86.785 47.827,85.79 47.61,84.811 47.326,83.841 46.982,82.887 46.581,81.967 46.129,81.064 
	45.611,80.194 45.042,79.358 44.423,78.563 43.763,77.811 43.043,77.091 42.291,76.431 41.496,75.812 40.66,75.243 39.79,74.725 
	38.887,74.273 37.967,73.872 37.014,73.529 36.043,73.245 35.065,73.027 34.07,72.868 33.066,72.776 32.054,72.743 31.042,72.776 
	30.039,72.868 29.043,73.027 28.065,73.245 27.095,73.529 26.142,73.872 25.222,74.273 24.318,74.725 23.448,75.243 22.612,75.812 
	21.818,76.431 21.065,77.091 20.346,77.811 19.685,78.563 19.066,79.358 18.498,80.194 17.979,81.064 17.527,81.967 17.126,82.887 
	16.783,83.841 16.499,84.811 16.281,85.79 16.123,86.785 16.031,87.788 15.997,88.8 16.031,89.812 16.123,90.815 16.281,91.811 
	16.499,92.789 16.783,93.759 17.126,94.713 17.527,95.632 17.979,96.536 18.498,97.405 19.066,98.242 19.685,99.036 20.346,99.79 
	21.065,100.509 21.818,101.169 22.612,101.788 23.448,102.356 24.318,102.875 25.222,103.327 26.142,103.729 27.095,104.071 
	28.065,104.355 29.043,104.573 30.039,104.731 31.042,104.824 32.054,104.857 33.066,104.824 34.07,104.731 35.065,104.573 
	36.043,104.355 37.014,104.071 37.967,103.729 38.887,103.327 39.79,102.875 40.66,102.356 41.496,101.788 42.291,101.169 
	43.043,100.509 43.763,99.79 44.423,99.036 45.042,98.242 45.611,97.405 46.129,96.536 46.581,95.632 46.982,94.713 47.326,93.759 
	47.61,92.789 47.827,91.811 47.986,90.815 48.078,89.812 48.112,88.8 "/>
<polyline fill="none" stroke="#000514" stroke-width="2.25" stroke-linecap="round" stroke-linejoin="round" stroke-miterlimit="10" points="
	48.112,34.857 48.078,33.845 47.986,32.842 47.827,31.847 47.61,30.868 47.326,29.898 46.982,28.944 46.581,28.024 46.129,27.121 
	45.611,26.251 45.042,25.415 44.423,24.621 43.763,23.868 43.043,23.148 42.291,22.488 41.496,21.869 40.66,21.3 39.79,20.782 
	38.887,20.331 37.967,19.929 37.014,19.586 36.043,19.302 35.065,19.084 34.07,18.925 33.066,18.833 32.054,18.8 31.042,18.833 
	30.039,18.925 29.043,19.084 28.065,19.302 27.095,19.586 26.142,19.929 25.222,20.331 24.318,20.782 23.448,21.3 22.612,21.869 
	21.818,22.488 21.065,23.148 20.346,23.868 19.685,24.621 19.066,25.415 18.498,26.251 17.979,27.121 17.527,28.024 17.126,28.944 
	16.783,29.898 16.499,30.868 16.281,31.847 16.123,32.842 16.031,33.845 15.997,34.857 16.031,35.869 16.123,36.873 16.281,37.868 
	16.499,38.846 16.783,39.817 17.126,40.77 17.527,41.69 17.979,42.593 18.498,43.463 19.066,44.299 19.685,45.094 20.346,45.847 
	21.065,46.565 21.818,47.227 22.612,47.845 23.448,48.414 24.318,48.933 25.222,49.384 26.142,49.786 27.095,50.128 28.065,50.413 
	29.043,50.63 30.039,50.79 31.042,50.881 32.054,50.915 33.066,50.881 34.07,50.79 35.065,50.63 36.043,50.413 37.014,50.128 
	37.967,49.786 38.887,49.384 39.79,48.933 40.66,48.414 41.496,47.845 42.291,47.227 43.043,46.565 43.763,45.847 44.423,45.094 
	45.042,44.299 45.611,43.463 46.129,42.593 46.581,41.69 46.982,40.77 47.326,39.817 47.61,38.846 47.827,37.868 47.986,36.873 
	48.078,35.869 48.112,34.857 "/>
<text transform="matrix(1 0 0 1 59.3188 38.0576)" font-family="'ArialMT'" font-size="12">Score ≤ 1° Filter</text>
<text transform="matrix(1 0 0 1 59.3188 92.001)" font-family="'ArialMT'" font-size="12">1° Filter &lt; Score ≤ 2° Filter</text>
<text transform="matrix(1 0 0 1 59.3188 145.9434)" font-family="'ArialMT'" font-size="12">2° Filter &lt; Score</text>
</svg>
