<?xml version="1.0" encoding="utf-8"?>
<!-- Generator: Adobe Illustrator 16.0.4, SVG Export Plug-In . SVG Version: 6.00 Build 0)  -->
<!DOCTYPE svg PUBLIC "-//W3C//DTD SVG 1.1//EN" "http://www.w3.org/Graphics/SVG/1.1/DTD/svg11.dtd">
<svg version="1.1" id="Layer_1" xmlns="http://www.w3.org/2000/svg" xmlns:xlink="http://www.w3.org/1999/xlink" x="0px" y="0px"
	 width="130px" height="158.467px" viewBox="0 0 130 158.467" enable-background="new 0 0 130 158.467" xml:space="preserve">
<circle fill="none" stroke="#763626" stroke-width="5" stroke-miterlimit="10" cx="65" cy="65" r="62.5"/>
<g>
	<circle fill="#763626" cx="44" cy="51.406" r="10"/>
	<circle fill="#763626" cx="86" cy="51.406" r="10"/>
	<line fill="none" stroke="#763626" stroke-width="5" stroke-miterlimit="10" x1="37" y1="82.406" x2="84" y2="99.406"/>
	<line fill="none" stroke="#763626" stroke-width="5" stroke-miterlimit="10" x1="75.625" y1="36.219" x2="92.875" y2="30.594"/>
	<line fill="none" stroke="#763626" stroke-width="5" stroke-miterlimit="10" x1="52.848" y1="37.128" x2="35.598" y2="31.503"/>
</g>
<path fill="#763626" d="M36.99,116.572l15.264,4.937c-0.325-1.036-0.534-2.042-0.624-3.016c-0.342-3.704,3.226-6.518,6.726-5.384
	c1.904,0.616,2.933,2.179,3.128,4.298c0.305,3.294,5.917,9.181,8.44,11.465c1.564,1.405,2.068,3.548,1.46,5.427h0.001l-5.674,17.543
	c-0.391,1.208-1.604,1.955-2.856,1.754c-5.03-0.808-7.59,1.893-13.923-0.174c-0.278-0.091-1.362-0.418-1.643-0.51
	c-5.181-1.675-7.612-4.961-5.068-9.689c-1.595-1.566-1.838-5.055,0.379-6.917c-1.82-2.982-0.532-6.263,1.702-7.465l-10.212-3.303
	c-2.47-0.799-3.914-3.549-3.132-5.964C31.729,117.192,34.592,115.797,36.99,116.572L36.99,116.572z M76.742,131.708l4.909,1.588
	c1.356,0.438,2.1,1.894,1.661,3.249l-6.351,19.637c-0.438,1.355-1.893,2.1-3.249,1.661l-4.909-1.588
	c-1.355-0.438-2.099-1.893-1.661-3.248l6.351-19.638C73.933,132.014,75.387,131.27,76.742,131.708z M72.185,154.186
	c1.13,0.365,2.342-0.255,2.707-1.384c0.366-1.131-0.253-2.342-1.383-2.707s-2.342,0.253-2.708,1.384
	C70.435,152.607,71.055,153.82,72.185,154.186z"/>
</svg>
