<?xml version="1.0" encoding="utf-8"?>
<!-- Generator: Adobe Illustrator 16.0.4, SVG Export Plug-In . SVG Version: 6.00 Build 0)  -->
<!DOCTYPE svg PUBLIC "-//W3C//DTD SVG 1.1//EN" "http://www.w3.org/Graphics/SVG/1.1/DTD/svg11.dtd">
<svg version="1.1" id="Layer_1" xmlns="http://www.w3.org/2000/svg" xmlns:xlink="http://www.w3.org/1999/xlink" x="0px" y="0px"
	 width="289.688px" height="35.52px" viewBox="0 0 289.688 35.52" enable-background="new 0 0 289.688 35.52" xml:space="preserve">
<g>
	<path fill="#2A3132" d="M21.811,32.158c-2.681,0-5.242-1.152-7.024-3.159l-0.199-0.225H6.41V16.756h8.177l0.199-0.224
		c1.746-1.965,4.236-3.109,6.855-3.157c0.003-0.018,0.007-0.036,0.017-0.054c0,0,0.087,0,0.131,0
		c-0.053-0.421,0.021-0.859,0.021-1.283l0,0c-2.961,0-5.794,1.229-7.818,3.383H6.41v-1.157c0-0.859-0.699-1.558-1.558-1.558H1.558
		C0.699,12.706,0,13.405,0,14.264v17.004c0,0.858,0.699,1.558,1.558,1.558h3.293c0.859,0,1.558-0.699,1.558-1.558V30.11h7.583
		c2.016,2.144,4.832,3.371,7.779,3.382C21.778,33.047,21.813,32.599,21.811,32.158z M5.074,18.073H3.197v1.335h1.877v1.349H3.197
		v1.335h1.877v1.348H3.197v1.335h1.877v1.348H3.197v1.335h1.877v1.349H3.197v1.335h1.877v1.126c0,0.122-0.1,0.222-0.223,0.222H1.558
		c-0.123,0-0.223-0.1-0.223-0.222V14.264c0-0.123,0.1-0.223,0.223-0.223h3.293c0.123,0,0.223,0.1,0.223,0.223v1.125H3.197v1.335
		h1.877V18.073z"/>
	<g>
		<g>
			<path fill="#2A3132" d="M14.945,17.419l-0.598,0.672h-3.837v1.335h4.437l0.996-1.121c1.276-1.438,3.109-2.261,5.028-2.261v-1.336
				C18.671,14.708,16.475,15.696,14.945,17.419z"/>
		</g>
	</g>
	<g>
		<g>
			<rect x="8.413" y="18.092" fill="#2A3132" width="1.334" height="1.334"/>
		</g>
	</g>
</g>
<path fill="#2A3132" d="M267.916,33.492c2.947-0.011,5.763-1.238,7.779-3.382h7.582v1.158c0,0.858,0.699,1.558,1.559,1.558h3.293
	c0.859,0,1.559-0.699,1.559-1.558V14.264c0-0.859-0.699-1.558-1.559-1.558h-3.293c-0.859,0-1.559,0.699-1.559,1.558v1.157h-7.582
	c-2.025-2.154-4.857-3.383-7.818-3.383l0,0c0,0.424,0.074,0.862,0.021,1.283c0.043,0,0.131,0,0.131,0
	c0.01,0.018,0.014,0.036,0.017,0.054c2.62,0.047,5.11,1.191,6.855,3.157l0.199,0.224h8.177v12.018h-8.177l-0.199,0.225
	c-1.782,2.007-4.343,3.159-7.024,3.159C267.874,32.599,267.909,33.047,267.916,33.492z M284.613,16.725h1.877v-1.335h-1.877v-1.125
	c0-0.123,0.1-0.223,0.223-0.223h3.293c0.123,0,0.223,0.1,0.223,0.223v17.004c0,0.122-0.1,0.222-0.223,0.222h-3.293
	c-0.123,0-0.223-0.1-0.223-0.222v-1.126h1.877v-1.335h-1.877v-1.349h1.877v-1.335h-1.877v-1.348h1.877v-1.335h-1.877v-1.348h1.877
	v-1.335h-1.877v-1.349h1.877v-1.335h-1.877V16.725z"/>
<g>
	<path fill="#2A3132" d="M21.619,35.04V0.96h14.544c1.632,0,3.127,0.336,4.488,1.008c1.36,0.672,2.528,1.552,3.504,2.64
		c0.976,1.088,1.744,2.321,2.304,3.696c0.56,1.376,0.84,2.768,0.84,4.176c0,1.504-0.264,2.944-0.792,4.32
		c-0.528,1.376-1.264,2.609-2.208,3.696c-0.944,1.088-2.088,1.952-3.432,2.592c-1.344,0.641-2.832,0.96-4.464,0.96h-6.912V35.04
		H21.619z M29.491,17.184h6.432c0.928,0,1.728-0.4,2.4-1.2c0.672-0.799,1.008-1.968,1.008-3.504c0-0.799-0.104-1.488-0.312-2.064
		c-0.208-0.576-0.488-1.056-0.84-1.44c-0.353-0.384-0.752-0.664-1.2-0.84c-0.449-0.176-0.896-0.264-1.344-0.264h-6.144V17.184z"/>
	<path fill="#2A3132" d="M66.882,16.416c-1.856,0.032-3.536,0.336-5.04,0.912c-1.504,0.576-2.592,1.44-3.264,2.592v15.12h-7.68V9.84
		h7.056v5.088c0.864-1.696,1.976-3.024,3.336-3.984c1.359-0.96,2.808-1.456,4.344-1.488c0.352,0,0.607,0,0.768,0
		c0.16,0,0.319,0.017,0.48,0.048V16.416z"/>
	<path fill="#2A3132" d="M80.85,35.52c-2.145,0-4.056-0.353-5.736-1.056c-1.68-0.703-3.096-1.656-4.248-2.856
		c-1.152-1.2-2.024-2.592-2.616-4.176c-0.593-1.584-0.888-3.24-0.888-4.968s0.295-3.384,0.888-4.968
		c0.592-1.584,1.464-2.976,2.616-4.176c1.152-1.2,2.568-2.16,4.248-2.88c1.68-0.72,3.592-1.08,5.736-1.08
		c2.144,0,4.048,0.36,5.712,1.08c1.664,0.72,3.072,1.68,4.224,2.88c1.152,1.2,2.032,2.592,2.64,4.176s0.912,3.24,0.912,4.968
		s-0.296,3.384-0.888,4.968c-0.593,1.584-1.464,2.976-2.616,4.176c-1.152,1.2-2.568,2.153-4.248,2.856
		C84.906,35.167,82.994,35.52,80.85,35.52z M75.234,22.464c0,1.985,0.528,3.576,1.584,4.776c1.056,1.2,2.4,1.8,4.032,1.8
		c0.799,0,1.536-0.16,2.208-0.48c0.672-0.319,1.255-0.768,1.752-1.344c0.496-0.576,0.888-1.272,1.176-2.088s0.432-1.704,0.432-2.664
		c0-1.983-0.528-3.576-1.584-4.776c-1.056-1.2-2.384-1.8-3.984-1.8c-0.8,0-1.544,0.16-2.232,0.48
		c-0.688,0.32-1.28,0.768-1.776,1.344c-0.496,0.576-0.888,1.272-1.176,2.088C75.378,20.616,75.234,21.504,75.234,22.464z"/>
	<path fill="#2A3132" d="M127.746,0.96v34.08h-7.872V21.072h-13.584V35.04h-7.872V0.96h7.872v13.2h13.584V0.96H127.746z"/>
	<path fill="#2A3132" d="M133.65,6.96V0h7.68v6.96H133.65z M133.65,35.04V9.84h7.68v25.2H133.65z"/>
	<path fill="#2A3132" d="M162.929,33.696c-1.056,0.449-2.264,0.864-3.624,1.248c-1.36,0.384-2.729,0.576-4.104,0.576
		c-0.96,0-1.864-0.12-2.712-0.36c-0.848-0.24-1.592-0.624-2.232-1.152c-0.641-0.528-1.145-1.224-1.512-2.088
		c-0.368-0.864-0.552-1.903-0.552-3.12V15.648h-3.216V9.84h3.216V1.824h7.68V9.84h5.136v5.808h-5.136V26.16
		c0,0.833,0.208,1.433,0.624,1.8c0.416,0.368,0.944,0.552,1.584,0.552c0.576,0,1.168-0.096,1.776-0.288
		c0.607-0.192,1.135-0.4,1.584-0.624L162.929,33.696z"/>
	<path fill="#2A3132" d="M175.841,35.52c-2.145,0-4.257-0.344-6.336-1.032c-2.081-0.688-3.841-1.688-5.28-3l2.736-4.704
		c1.535,1.056,3.031,1.872,4.488,2.448c1.455,0.576,2.855,0.864,4.199,0.864c0.992,0,1.76-0.176,2.305-0.528
		c0.543-0.352,0.815-0.864,0.815-1.536c0-0.672-0.345-1.208-1.032-1.608c-0.688-0.399-1.896-0.823-3.623-1.272
		c-1.697-0.48-3.129-0.943-4.297-1.392c-1.168-0.448-2.12-0.944-2.855-1.488c-0.736-0.543-1.265-1.167-1.584-1.872
		c-0.32-0.703-0.48-1.536-0.48-2.496c0-1.279,0.256-2.448,0.768-3.504c0.512-1.056,1.217-1.951,2.113-2.688
		c0.895-0.736,1.959-1.312,3.191-1.728c1.231-0.416,2.568-0.624,4.008-0.624c1.888,0,3.656,0.257,5.305,0.768
		c1.646,0.512,3.239,1.44,4.775,2.784l-2.977,4.608c-1.439-0.992-2.72-1.711-3.84-2.16c-1.12-0.448-2.207-0.672-3.264-0.672
		c-0.832,0-1.536,0.168-2.111,0.504C172.289,15.528,172,16.064,172,16.8c0,0.705,0.312,1.232,0.937,1.584s1.784,0.736,3.479,1.152
		c1.793,0.48,3.305,0.96,4.537,1.44c1.23,0.48,2.231,1.016,3,1.608c0.768,0.593,1.327,1.272,1.68,2.04
		c0.352,0.768,0.527,1.68,0.527,2.736c0,2.496-0.928,4.48-2.783,5.952C181.521,34.784,179.009,35.52,175.841,35.52z"/>
	<path fill="#2A3132" d="M189.809,25.296v-6.912h14.784v6.912H189.809z"/>
	<path fill="#2A3132" d="M215.536,35.04l-8.928-25.2h7.92l5.521,19.056l5.567-19.056h7.151l-8.879,25.2H215.536z"/>
	<path fill="#2A3132" d="M235.695,6.96V0h7.68v6.96H235.695z M235.695,35.04V9.84h7.68v25.2H235.695z"/>
	<path fill="#2A3132" d="M247.168,30.432l12.863-15.264H247.84V9.84h20.208v4.608l-12.769,15.264h13.104v5.328h-21.216V30.432z"/>
</g>
</svg>
