<?xml version="1.0" encoding="iso-8859-1"?>
<!-- Generator: Adobe Illustrator 19.0.0, SVG Export Plug-In . SVG Version: 6.00 Build 0)  -->
<svg version="1.1" id="Layer_1" xmlns="http://www.w3.org/2000/svg" xmlns:xlink="http://www.w3.org/1999/xlink" x="0px" y="0px"
	 viewBox="0 0 512 512" style="enable-background:new 0 0 512 512;" xml:space="preserve">
<g>
	<g>
		<path d="M493.714,137.926h-38.661c-10.082,0-18.286,8.203-18.286,18.286v13.584h-89.006C323.999,144.518,290.76,130.09,256,130.09
			s-67.999,14.428-91.761,39.706H75.233v-13.584c0-10.082-8.203-18.286-18.286-18.286H18.286C8.203,137.926,0,146.13,0,156.212
			v199.575c0,10.082,8.203,18.286,18.286,18.286h38.661c10.082,0,18.286-8.204,18.286-18.286v-13.584h89.007
			c23.763,25.278,57.002,39.706,91.761,39.706c34.759,0,67.998-14.428,91.761-39.706h89.006v13.584
			c0,10.082,8.203,18.286,18.286,18.286h38.661c10.082,0,18.286-8.204,18.286-18.286V156.212
			C512,146.13,503.797,137.926,493.714,137.926z M59.559,169.423H37.528v15.673h22.032v15.824H37.528v15.673h22.032v15.823H37.528
			v15.673h22.032v15.823H37.528v15.673h22.032v15.823H37.528v15.673h22.032v15.824H37.528v15.673h22.032v13.208
			c0,1.441-1.172,2.612-2.612,2.612H18.286c-1.44,0-2.612-1.171-2.612-2.612V156.212c0-1.441,1.172-2.612,2.612-2.612h38.661
			c1.44,0,2.612,1.171,2.612,2.612V169.423z M436.767,326.531h-95.981l-2.338,2.633c-20.924,23.56-50.975,37.073-82.448,37.073
			c-31.472,0-61.524-13.513-82.448-37.073l-2.338-2.633H75.233V185.469h95.981l2.338-2.633
			c20.923-23.561,50.974-37.073,82.448-37.073s61.525,13.513,82.448,37.073l2.338,2.633h95.981V326.531z M496.327,355.788
			c0,1.441-1.172,2.612-2.612,2.612h-38.661c-1.44,0-2.612-1.171-2.612-2.612v-13.21h22.032v-15.674h-22.032v-15.824h22.032v-15.673
			h-22.032v-15.823h22.032v-15.673h-22.032v-15.823h22.032v-15.673h-22.032v-15.823h22.032v-15.673h-22.032v-15.824h22.032v-15.673
			h-22.032v-13.208c0-1.441,1.172-2.612,2.612-2.612h38.661c1.44,0,2.612,1.171,2.612,2.612V355.788z"/>
	</g>
</g>
<g>
	<g>
		<path d="M185.272,193.244l-7.014,7.898h-45.033v15.673h52.075l11.691-13.165c14.98-16.868,36.488-26.541,59.01-26.541v-15.673
			C229.003,161.437,203.223,173.031,185.272,193.244z"/>
	</g>
</g>
<g>
	<g>
		<rect x="98.743" y="201.143" width="15.673" height="15.673"/>
	</g>
</g>
<g>
</g>
<g>
</g>
<g>
</g>
<g>
</g>
<g>
</g>
<g>
</g>
<g>
</g>
<g>
</g>
<g>
</g>
<g>
</g>
<g>
</g>
<g>
</g>
<g>
</g>
<g>
</g>
<g>
</g>
</svg>
