<?xml version="1.0" encoding="utf-8"?>
<!-- Generator: Adobe Illustrator 16.0.4, SVG Export Plug-In . SVG Version: 6.00 Build 0)  -->
<!DOCTYPE svg PUBLIC "-//W3C//DTD SVG 1.1//EN" "http://www.w3.org/Graphics/SVG/1.1/DTD/svg11.dtd">
<svg version="1.1" id="Layer_1" xmlns="http://www.w3.org/2000/svg" xmlns:xlink="http://www.w3.org/1999/xlink" x="0px" y="0px"
	 width="185.867px" height="75.311px" viewBox="0 0 185.867 75.311" enable-background="new 0 0 185.867 75.311"
	 xml:space="preserve">
<g>
	<path fill="#56A0D3" d="M0.74,13.96V1.771h3.508v9.85h2.799v2.339H0.74z"/>
	<path fill="#56A0D3" d="M12.824,14.137c-2.853,0-4.323-0.938-4.323-3.419V4.411h3.366v6.555c0,0.479,0.266,0.922,1.01,0.922
		c0.372,0,0.638-0.054,0.868-0.16V4.411h3.366v8.981C16.154,13.854,14.737,14.137,12.824,14.137z"/>
	<path fill="#56A0D3" d="M24.342,13.96V7.388c0-0.585-0.284-1.081-1.134-1.081c-0.372,0-0.638,0.054-0.851,0.124v7.529h-3.366V4.961
		c0.992-0.443,2.48-0.727,4.251-0.727c3.225,0,4.464,1.204,4.464,3.118v6.607H24.342z"/>
	<path fill="#56A0D3" d="M38.039,9.549l-5.562,0.779c0.212,1.027,0.779,1.541,2.002,1.541c1.134,0,2.001-0.248,2.533-0.496
		l0.744,2.038c-0.833,0.407-1.949,0.726-3.721,0.726c-3.118,0-4.765-2.107-4.765-4.978s1.541-4.925,4.535-4.925
		c2.958,0,4.251,2.002,4.251,4.801C38.056,9.212,38.056,9.372,38.039,9.549z M33.663,6.183c-0.904,0-1.435,0.762-1.435,2.161
		c0,0.124,0,0.267,0.018,0.408l2.693-0.426C34.938,6.892,34.531,6.183,33.663,6.183z"/>
	<path fill="#56A0D3" d="M44.968,13.96V7.388c0-0.585-0.284-1.081-1.134-1.081c-0.372,0-0.638,0.054-0.851,0.124v7.529h-3.366V4.961
		c0.992-0.443,2.48-0.727,4.251-0.727c3.225,0,4.464,1.204,4.464,3.118v6.607H44.968z"/>
	<path fill="#56A0D3" d="M54.024,6.608v7.352h-3.366V6.608h-1.01V4.411h1.01V3.632C50.658,1.275,52.164,0,54.467,0
		c0.301,0,0.602,0.035,0.921,0.071v2.126c-0.921-0.054-1.364,0.194-1.364,1.187v1.027h1.364v2.197H54.024z"/>
	<path fill="#56A0D3" d="M64.992,9.549l-5.562,0.779c0.212,1.027,0.779,1.541,2.002,1.541c1.134,0,2.001-0.248,2.533-0.496
		l0.744,2.038c-0.833,0.407-1.949,0.726-3.721,0.726c-3.118,0-4.765-2.107-4.765-4.978s1.541-4.925,4.535-4.925
		c2.958,0,4.251,2.002,4.251,4.801C65.009,9.212,65.009,9.372,64.992,9.549z M60.616,6.183c-0.904,0-1.435,0.762-1.435,2.161
		c0,0.124,0,0.267,0.018,0.408l2.693-0.426C61.892,6.892,61.484,6.183,60.616,6.183z"/>
	<path fill="#56A0D3" d="M66.606,13.96V0.054h3.366V13.96H66.606z"/>
	<path fill="#56A0D3" d="M76.493,14.137c-2.958,0-4.942-1.594-4.942-4.942c0-2.994,1.771-4.89,4.216-4.89
		c0.584,0,1.063,0.054,1.346,0.142V0.054h3.366v13.357C79.487,13.889,78.318,14.137,76.493,14.137z M77.113,6.219
		c-0.142-0.036-0.319-0.071-0.531-0.071c-1.205,0-1.701,1.027-1.701,2.94c0,1.984,0.531,2.941,1.647,2.941
		c0.248,0,0.443-0.018,0.584-0.089V6.219z"/>
	<path fill="#56A0D3" d="M82.608,9.229V6.803h4.925v2.427H82.608z"/>
	<path fill="#56A0D3" d="M93.257,4.11v9.85h-3.508V4.11h-1.967V1.771h7.441V4.11H93.257z"/>
	<path fill="#56A0D3" d="M99.796,14.137c-2.887,0-4.446-1.01-4.446-3.1c0-2.445,2.498-3.136,5.333-3.401V7.264
		c0-0.762-0.55-0.975-1.471-0.975c-0.922,0-1.914,0.283-2.587,0.585l-0.69-1.896c0.727-0.302,2.055-0.744,3.933-0.744
		c2.339,0,3.95,0.975,3.95,3.685v5.492C103.003,13.836,101.603,14.137,99.796,14.137z M100.683,9.142
		c-1.294,0.106-2.197,0.425-2.197,1.754c0,0.974,0.549,1.399,1.471,1.399c0.301,0,0.549-0.035,0.727-0.124V9.142z"/>
	<path fill="#56A0D3" d="M111.048,13.96V7.388c0-0.585-0.283-1.081-1.133-1.081c-0.373,0-0.639,0.054-0.852,0.124v7.529h-3.365
		V4.961c0.992-0.443,2.48-0.727,4.252-0.727c3.225,0,4.464,1.204,4.464,3.118v6.607H111.048z"/>
	<path fill="#56A0D3" d="M124.745,9.549l-5.562,0.779c0.213,1.027,0.779,1.541,2.002,1.541c1.134,0,2.002-0.248,2.533-0.496
		l0.744,2.038c-0.833,0.407-1.949,0.726-3.721,0.726c-3.117,0-4.766-2.107-4.766-4.978s1.541-4.925,4.535-4.925
		c2.959,0,4.252,2.002,4.252,4.801C124.763,9.212,124.763,9.372,124.745,9.549z M120.37,6.183c-0.904,0-1.436,0.762-1.436,2.161
		c0,0.124,0,0.267,0.018,0.408l2.693-0.426C121.646,6.892,121.237,6.183,120.37,6.183z"/>
	<path fill="#56A0D3" d="M131.675,13.96V7.388c0-0.585-0.283-1.081-1.134-1.081c-0.372,0-0.638,0.054-0.851,0.124v7.529h-3.365
		V4.961c0.992-0.443,2.479-0.727,4.251-0.727c3.225,0,4.464,1.204,4.464,3.118v6.607H131.675z"/>
	<path fill="#56A0D3" d="M140.677,14.137c-1.824,0-3.082-0.318-3.756-0.726V0.054h3.366v4.535c0.425-0.178,0.903-0.302,1.7-0.302
		c2.268,0,3.863,1.789,3.863,4.57C145.851,12.348,143.972,14.137,140.677,14.137z M140.996,6.2c-0.302,0-0.515,0.036-0.709,0.124
		v5.723c0.142,0.053,0.372,0.089,0.603,0.089c1.134,0,1.647-1.028,1.647-3.048C142.537,7.37,142.307,6.2,140.996,6.2z"/>
	<path fill="#56A0D3" d="M151.434,14.137c-2.888,0-4.446-1.01-4.446-3.1c0-2.445,2.498-3.136,5.332-3.401V7.264
		c0-0.762-0.549-0.975-1.471-0.975c-0.921,0-1.913,0.283-2.586,0.585l-0.691-1.896c0.727-0.302,2.055-0.744,3.934-0.744
		c2.338,0,3.95,0.975,3.95,3.685v5.492C154.64,13.836,153.24,14.137,151.434,14.137z M152.319,9.142
		c-1.293,0.106-2.197,0.425-2.197,1.754c0,0.974,0.55,1.399,1.471,1.399c0.301,0,0.549-0.035,0.727-0.124V9.142z"/>
	<path fill="#56A0D3" d="M161.658,14.137c-2.853,0-4.323-0.938-4.323-3.419V4.411h3.366v6.555c0,0.479,0.267,0.922,1.01,0.922
		c0.372,0,0.638-0.054,0.868-0.16V4.411h3.366v8.981C164.988,13.854,163.571,14.137,161.658,14.137z"/>
	<path fill="#56A0D3" d="M178.544,13.96V7.334c0-0.602-0.407-1.01-1.151-1.01c-0.337,0-0.62,0.089-0.851,0.248v7.388h-3.365V7.334
		c0-0.62-0.408-1.01-1.17-1.01c-0.354,0-0.584,0.036-0.814,0.124v7.512h-3.366V4.961c1.151-0.496,2.409-0.727,4.146-0.727
		c1.63,0,2.533,0.407,3.064,0.851c0.585-0.426,1.559-0.851,3.26-0.851c2.268,0,3.613,1.275,3.613,3.118v6.607H178.544z"/>
	<path fill="#56A0D3" d="M6.55,31.681l-2.338-5.226H4.176v5.226H0.74V20.042c1.01-0.443,2.356-0.727,3.968-0.727
		c3.561,0,5.155,1.541,5.155,3.897c0,1.364-1.116,2.64-2.392,2.976v0.036l2.888,5.456H6.55z M4.743,21.3
		c-0.248,0-0.425,0.035-0.567,0.088v4.163c0.071,0.018,0.248,0.036,0.408,0.036c1.24,0,1.86-0.851,1.86-2.197
		C6.444,21.99,6.107,21.3,4.743,21.3z"/>
	<path fill="#56A0D3" d="M19.592,27.27l-5.562,0.779c0.212,1.027,0.779,1.541,2.002,1.541c1.134,0,2.001-0.248,2.533-0.496
		l0.744,2.038c-0.833,0.407-1.949,0.726-3.72,0.726c-3.118,0-4.766-2.107-4.766-4.978s1.541-4.925,4.535-4.925
		c2.958,0,4.251,2.002,4.251,4.801C19.609,26.933,19.609,27.093,19.592,27.27z M15.216,23.903c-0.904,0-1.435,0.762-1.435,2.161
		c0,0.124,0,0.267,0.018,0.408l2.693-0.426C16.492,24.612,16.084,23.903,15.216,23.903z"/>
	<path fill="#56A0D3" d="M23.581,31.84c-1.24,0-2.356-0.301-2.994-0.708l0.85-2.126c0.372,0.301,1.01,0.549,1.63,0.549
		c0.514,0,0.886-0.301,0.886-0.744c0-0.46-0.248-0.762-1.045-1.098c-1.701-0.691-2.09-1.666-2.09-2.658c0-1.735,1.364-3.1,3.366-3.1
		c1.293,0,2.108,0.212,2.994,0.727l-0.797,1.877c-0.284-0.212-0.833-0.478-1.399-0.478s-0.851,0.336-0.851,0.744
		c0,0.496,0.372,0.814,1.045,1.115c1.825,0.798,2.232,1.684,2.232,2.782C27.407,30.512,25.99,31.84,23.581,31.84z"/>
	<path fill="#56A0D3" d="M37.365,27.27l-5.562,0.779c0.212,1.027,0.779,1.541,2.002,1.541c1.134,0,2.001-0.248,2.533-0.496
		l0.744,2.038c-0.833,0.407-1.949,0.726-3.72,0.726c-3.118,0-4.766-2.107-4.766-4.978s1.541-4.925,4.535-4.925
		c2.958,0,4.251,2.002,4.251,4.801C37.383,26.933,37.383,27.093,37.365,27.27z M32.99,23.903c-0.904,0-1.435,0.762-1.435,2.161
		c0,0.124,0,0.267,0.018,0.408l2.693-0.426C34.265,24.612,33.857,23.903,32.99,23.903z"/>
	<path fill="#56A0D3" d="M42.701,31.857c-2.888,0-4.447-1.01-4.447-3.1c0-2.445,2.498-3.136,5.333-3.401v-0.372
		c0-0.762-0.549-0.975-1.471-0.975c-0.921,0-1.913,0.283-2.586,0.585l-0.691-1.896c0.727-0.302,2.055-0.744,3.933-0.744
		c2.338,0,3.951,0.975,3.951,3.685v5.492C45.907,31.557,44.507,31.857,42.701,31.857z M43.586,26.862
		c-1.293,0.106-2.197,0.425-2.197,1.754c0,0.974,0.549,1.399,1.47,1.399c0.301,0,0.549-0.035,0.727-0.124V26.862z"/>
	<path fill="#56A0D3" d="M53.634,24.329c-0.372-0.178-0.727-0.266-1.063-0.266c-0.212,0-0.425,0.035-0.603,0.105v7.512h-3.366
		v-8.999c0.921-0.461,2.303-0.727,4.287-0.727c0.39,0,0.921,0.018,1.329,0.035L53.634,24.329z"/>
	<path fill="#56A0D3" d="M58.649,31.857c-2.339,0-4.075-1.735-4.075-4.995s1.913-4.907,4.039-4.907c1.169,0,1.984,0.301,2.445,0.708
		l-0.656,1.843c-0.23-0.195-0.531-0.337-0.992-0.337c-0.921,0-1.435,0.868-1.435,2.676c0,1.754,0.549,2.657,1.435,2.657
		c0.443,0,0.744-0.142,0.992-0.354l0.691,2.002C60.669,31.539,59.942,31.857,58.649,31.857z"/>
	<path fill="#56A0D3" d="M67.775,31.681v-6.572c0-0.62-0.301-1.099-1.169-1.099c-0.301,0-0.567,0.054-0.815,0.178v7.493h-3.366
		V17.774h3.366v4.588c0.567-0.23,1.205-0.372,1.984-0.372c2.374,0,3.366,1.347,3.366,3.047v6.644H67.775z"/>
	<path fill="#56A0D3" d="M77.824,31.681V19.492h3.508v12.188H77.824z"/>
	<path fill="#56A0D3" d="M88.667,31.681v-6.572c0-0.585-0.283-1.081-1.134-1.081c-0.372,0-0.638,0.054-0.851,0.124v7.529h-3.366
		v-8.999c0.993-0.443,2.48-0.727,4.251-0.727c3.225,0,4.464,1.204,4.464,3.118v6.607H88.667z"/>
	<path fill="#56A0D3" d="M96.341,31.84c-1.24,0-2.356-0.301-2.994-0.708l0.85-2.126c0.373,0.301,1.01,0.549,1.631,0.549
		c0.514,0,0.885-0.301,0.885-0.744c0-0.46-0.248-0.762-1.045-1.098c-1.7-0.691-2.09-1.666-2.09-2.658c0-1.735,1.363-3.1,3.365-3.1
		c1.294,0,2.108,0.212,2.994,0.727l-0.797,1.877c-0.283-0.212-0.832-0.478-1.399-0.478s-0.851,0.336-0.851,0.744
		c0,0.496,0.372,0.814,1.045,1.115c1.825,0.798,2.232,1.684,2.232,2.782C100.167,30.512,98.75,31.84,96.341,31.84z"/>
	<path fill="#56A0D3" d="M105.289,31.857c-2.144,0-3.136-1.311-3.136-2.958v-4.57h-0.992v-2.197h0.992v-1.948l3.365-0.851v2.799
		h1.383v2.197h-1.383v4.287c0,0.708,0.248,0.974,0.744,0.974c0.248,0,0.373-0.035,0.639-0.142v2.073
		C106.653,31.663,106.068,31.857,105.289,31.857z"/>
	<path fill="#56A0D3" d="M110.127,20.892c-0.956,0-1.736-0.69-1.736-1.523c0-0.832,0.78-1.506,1.736-1.506
		c0.974,0,1.754,0.674,1.754,1.506C111.881,20.201,111.101,20.892,110.127,20.892z M108.444,31.681v-9.549h3.365v9.549H108.444z"/>
	<path fill="#56A0D3" d="M117.427,31.857c-2.143,0-3.135-1.311-3.135-2.958v-4.57H113.3v-2.197h0.992v-1.948l3.365-0.851v2.799
		h1.382v2.197h-1.382v4.287c0,0.708,0.248,0.974,0.744,0.974c0.248,0,0.372-0.035,0.638-0.142v2.073
		C118.791,31.663,118.206,31.857,117.427,31.857z"/>
	<path fill="#56A0D3" d="M124.888,31.857c-2.854,0-4.323-0.938-4.323-3.419v-6.307h3.366v6.555c0,0.479,0.266,0.922,1.01,0.922
		c0.371,0,0.637-0.054,0.867-0.16v-7.316h3.367v8.981C128.218,31.574,126.8,31.857,124.888,31.857z"/>
	<path fill="#56A0D3" d="M134.758,31.857c-2.144,0-3.136-1.311-3.136-2.958v-4.57h-0.992v-2.197h0.992v-1.948l3.365-0.851v2.799
		h1.383v2.197h-1.383v4.287c0,0.708,0.248,0.974,0.744,0.974c0.248,0,0.373-0.035,0.639-0.142v2.073
		C136.122,31.663,135.537,31.857,134.758,31.857z"/>
	<path fill="#56A0D3" d="M146.168,27.27l-5.562,0.779c0.212,1.027,0.779,1.541,2.002,1.541c1.134,0,2.001-0.248,2.533-0.496
		l0.744,2.038c-0.833,0.407-1.948,0.726-3.72,0.726c-3.119,0-4.766-2.107-4.766-4.978s1.541-4.925,4.535-4.925
		c2.958,0,4.251,2.002,4.251,4.801C146.186,26.933,146.186,27.093,146.168,27.27z M141.792,23.903c-0.903,0-1.435,0.762-1.435,2.161
		c0,0.124,0,0.267,0.018,0.408l2.692-0.426C143.067,24.612,142.66,23.903,141.792,23.903z"/>
</g>
<g>
	<g>
		<path fill="#00467F" d="M0,75.311v-1.135c0.425-0.068,0.829-0.543,0.829-1.234v-7.609h1.324v7.572
			C2.153,74.393,1.362,75.271,0,75.311z"/>
		<path fill="#00467F" d="M5.063,73.723c-1.301,0-1.953-1.105-1.953-3.109s0.652-3.109,1.953-3.109c1.304,0,1.955,1.105,1.955,3.109
			S6.367,73.723,5.063,73.723z M5.063,68.471c-0.493,0-0.642,0.691-0.642,2.115c0,1.416,0.149,2.111,0.642,2.111
			c0.494,0,0.642-0.695,0.642-2.111C5.705,69.162,5.557,68.471,5.063,68.471z"/>
		<path fill="#00467F" d="M8.931,73.723c-0.592,0-0.985-0.17-1.283-0.395l0.298-0.988c0.167,0.139,0.472,0.277,0.79,0.277
			c0.344,0,0.591-0.238,0.591-0.615c0-1.105-1.619-1.105-1.619-2.799c0-1.018,0.623-1.699,1.599-1.699
			c0.554,0,0.988,0.188,1.244,0.393l-0.286,0.9c-0.157-0.107-0.395-0.236-0.7-0.236c-0.365,0-0.592,0.254-0.592,0.643
			c0,1.035,1.677,1.045,1.677,2.799C10.649,73.031,9.929,73.723,8.931,73.723z"/>
		<path fill="#00467F" d="M15.23,70.998l-2.606,0.326c0.028,0.742,0.384,1.303,1.024,1.303c0.525,0,0.95-0.148,1.167-0.287
			l0.296,0.988c-0.305,0.207-0.859,0.395-1.589,0.395c-1.471,0-2.191-1.145-2.191-3.051c0-2.033,0.699-3.168,2.014-3.168
			c1.332,0,1.904,1.193,1.904,2.951C15.249,70.621,15.24,70.811,15.23,70.998z M13.313,68.432c-0.503,0-0.73,0.83-0.711,2.006
			l1.373-0.168C13.967,69.25,13.828,68.432,13.313,68.432z"/>
		<path fill="#00467F" d="M18.061,73.682c-0.333,0-0.522-0.061-0.621-0.107v1.629h-1.283v-7.307
			c0.306-0.205,0.878-0.393,1.668-0.393c1.372,0,2.142,1.027,2.142,3.082C19.966,72.605,19.227,73.682,18.061,73.682z
			 M17.795,68.471c-0.14,0-0.298,0.029-0.355,0.061v4.086c0.057,0.02,0.207,0.049,0.327,0.049c0.708,0,0.896-0.789,0.896-2.092
			C18.663,69.211,18.407,68.471,17.795,68.471z"/>
		<path fill="#00467F" d="M23.282,73.621V69.24c0-0.504-0.156-0.77-0.622-0.77c-0.216,0-0.393,0.08-0.502,0.16v4.99h-1.283v-8.289
			h1.283v2.418c0.167-0.107,0.522-0.246,0.898-0.246c1.027,0,1.51,0.66,1.51,1.678v4.439H23.282z"/>
		<path fill="#00467F" d="M29.53,73.723c-1.273,0-1.884-0.842-1.884-1.926c0-1.461,1.027-2.053,2.368-2.24V69.32
			c0-0.516-0.228-0.789-0.73-0.789c-0.424,0-0.867,0.139-1.146,0.283l-0.275-0.918c0.305-0.184,0.928-0.393,1.657-0.393
			c1.086,0,1.739,0.621,1.739,1.934v3.859C30.902,73.553,30.34,73.723,29.53,73.723z M30.014,70.404
			c-0.73,0.109-1.163,0.477-1.163,1.305c0,0.582,0.236,1.047,0.739,1.047c0.177,0,0.335-0.051,0.424-0.1V70.404z"/>
		<path fill="#00467F" d="M34.732,73.621V69.25c0-0.484-0.167-0.779-0.642-0.779c-0.226,0-0.365,0.049-0.484,0.111v5.039h-1.283
			v-5.725c0.405-0.215,0.996-0.393,1.776-0.393c1.391,0,1.916,0.621,1.916,1.689v4.428H34.732z"/>
		<path fill="#00467F" d="M39.074,73.723c-1.37,0-2.152-1.025-2.152-3.078c0-2.023,0.751-3.102,1.916-3.102
			c0.337,0,0.515,0.059,0.612,0.111v-2.322h1.284v7.996C40.427,73.535,39.875,73.723,39.074,73.723z M39.449,68.539
			c-0.059-0.02-0.196-0.049-0.315-0.049c-0.711,0-0.908,0.791-0.908,2.096c0,1.359,0.257,2.111,0.868,2.111
			c0.149,0,0.295-0.041,0.354-0.07V68.539z"/>
		<path fill="#00467F" d="M49.301,73.621h-1.245l-0.768-4.746c-0.079-0.473-0.12-1.016-0.12-1.016H47.15c0,0-0.03,0.543-0.111,1.016
			l-0.769,4.746h-1.243l-1.353-8.289h1.333l0.649,5.004c0.06,0.475,0.08,1.025,0.08,1.025h0.021c0,0,0.049-0.541,0.128-1.025
			l0.819-5.004h1.037l0.818,5.004c0.078,0.475,0.118,1.025,0.118,1.025h0.02c0,0,0.029-0.551,0.088-1.025l0.652-5.004h1.214
			L49.301,73.621z"/>
		<path fill="#00467F" d="M52.952,73.723c-1.301,0-1.954-1.105-1.954-3.109s0.653-3.109,1.954-3.109
			c1.304,0,1.955,1.105,1.955,3.109S54.255,73.723,52.952,73.723z M52.952,68.471c-0.492,0-0.64,0.691-0.64,2.115
			c0,1.416,0.148,2.111,0.64,2.111c0.495,0,0.642-0.695,0.642-2.111C53.593,69.162,53.446,68.471,52.952,68.471z"/>
		<path fill="#00467F" d="M55.824,73.621v-8.289h1.294v8.289H55.824z"/>
		<path fill="#00467F" d="M59.732,68.561v5.061H58.44v-5.061h-0.484v-0.959h0.484v-0.629c0-1.215,0.602-1.719,1.568-1.719
			c0.129,0,0.268,0.02,0.395,0.041v0.926c-0.059-0.01-0.127-0.01-0.197-0.01c-0.295,0-0.474,0.197-0.474,0.721v0.67h0.671v0.959
			H59.732z"/>
		<path fill="#00467F" d="M63.522,73.621v-8.289h1.333v7.176h1.471v1.113H63.522z"/>
		<path fill="#00467F" d="M70.857,70.998l-2.606,0.326c0.031,0.742,0.385,1.303,1.025,1.303c0.523,0,0.948-0.148,1.165-0.287
			l0.296,0.988c-0.304,0.207-0.859,0.395-1.587,0.395c-1.473,0-2.193-1.145-2.193-3.051c0-2.033,0.702-3.168,2.014-3.168
			c1.333,0,1.906,1.193,1.906,2.951C70.876,70.621,70.867,70.811,70.857,70.998z M68.943,68.432c-0.505,0-0.732,0.83-0.713,2.006
			l1.374-0.168C69.594,69.25,69.454,68.432,68.943,68.432z"/>
		<path fill="#00467F" d="M73.373,73.723c-0.71,0-1.263-0.178-1.588-0.395v-7.996h1.283v2.371c0.158-0.082,0.405-0.17,0.79-0.17
			c1.086,0,1.737,1.125,1.737,2.912C75.594,72.566,74.863,73.723,73.373,73.723z M73.502,68.49c-0.167,0-0.336,0.041-0.435,0.092
			v4.035c0.089,0.039,0.206,0.08,0.375,0.08c0.641,0,0.849-0.781,0.849-2.164C74.292,69.154,74.075,68.49,73.502,68.49z"/>
		<path fill="#00467F" d="M78.298,73.723c-1.303,0-1.954-1.105-1.954-3.109s0.651-3.109,1.954-3.109s1.955,1.105,1.955,3.109
			S79.601,73.723,78.298,73.723z M78.298,68.471c-0.493,0-0.643,0.691-0.643,2.115c0,1.416,0.15,2.111,0.643,2.111
			c0.494,0,0.642-0.695,0.642-2.111C78.94,69.162,78.792,68.471,78.298,68.471z"/>
		<path fill="#00467F" d="M83.401,73.621h-1.312l-1.412-6.02h1.354l0.612,3.338c0.088,0.473,0.147,1.006,0.147,1.006h0.02
			c0,0,0.059-0.533,0.148-1.006l0.631-3.338h1.215L83.401,73.621z"/>
		<path fill="#00467F" d="M86.164,66.654c-0.395,0-0.71-0.314-0.71-0.709c0-0.396,0.315-0.713,0.71-0.713
			c0.396,0,0.711,0.316,0.711,0.713C86.875,66.34,86.56,66.654,86.164,66.654z M85.522,73.621v-6.02h1.295v6.02H85.522z"/>
		<path fill="#00467F" d="M89.66,73.723c-1.187,0-1.936-1.035-1.936-3.109c0-2.053,0.759-3.109,1.936-3.109
			c0.59,0,0.926,0.199,1.133,0.393l-0.297,0.869c-0.105-0.096-0.325-0.234-0.601-0.234c-0.533,0-0.849,0.631-0.849,2.055
			c0,1.402,0.345,2.041,0.849,2.041c0.275,0,0.495-0.109,0.601-0.229l0.297,0.93C90.605,73.525,90.28,73.723,89.66,73.723z"/>
		<path fill="#00467F" d="M96.576,73.621v-3.699h-1.439v3.699h-1.334v-8.289h1.334v3.504h1.439v-3.504h1.332v8.289H96.576z"/>
		<path fill="#00467F" d="M102.736,70.998l-2.606,0.326c0.028,0.742,0.386,1.303,1.026,1.303c0.523,0,0.948-0.148,1.166-0.287
			l0.296,0.988c-0.306,0.207-0.86,0.395-1.589,0.395c-1.471,0-2.192-1.145-2.192-3.051c0-2.033,0.702-3.168,2.015-3.168
			c1.332,0,1.904,1.193,1.904,2.951C102.756,70.621,102.746,70.811,102.736,70.998z M100.822,68.432c-0.504,0-0.73,0.83-0.711,2.006
			l1.373-0.168C101.473,69.25,101.334,68.432,100.822,68.432z"/>
		<path fill="#00467F" d="M105.283,73.723c-1.274,0-1.886-0.842-1.886-1.926c0-1.461,1.027-2.053,2.368-2.24V69.32
			c0-0.516-0.227-0.789-0.73-0.789c-0.424,0-0.869,0.139-1.144,0.283l-0.278-0.918c0.309-0.184,0.929-0.393,1.659-0.393
			c1.085,0,1.737,0.621,1.737,1.934v3.859C106.656,73.553,106.093,73.723,105.283,73.723z M105.766,70.404
			c-0.73,0.109-1.164,0.477-1.164,1.305c0,0.582,0.236,1.047,0.739,1.047c0.179,0,0.337-0.051,0.425-0.1V70.404z"/>
		<path fill="#00467F" d="M108.086,73.621v-8.289h1.293v8.289H108.086z"/>
		<path fill="#00467F" d="M112.053,73.691c-0.869,0-1.352-0.592-1.352-1.529v-3.602h-0.484v-0.959h0.484v-1.23l1.293-0.406v1.637
			h0.672v0.959h-0.672v3.414c0,0.494,0.158,0.662,0.425,0.662c0.099,0,0.179-0.02,0.247-0.051v0.967
			C112.586,73.604,112.351,73.691,112.053,73.691z"/>
		<path fill="#00467F" d="M115.981,73.621V69.24c0-0.504-0.157-0.77-0.621-0.77c-0.218,0-0.395,0.08-0.503,0.16v4.99h-1.283v-8.289
			h1.283v2.418c0.167-0.107,0.521-0.246,0.896-0.246c1.027,0,1.512,0.66,1.512,1.678v4.439H115.981z"/>
		<path fill="#00467F" d="M122.812,73.732c-1.552,0-2.398-1.422-2.398-4.254s0.847-4.254,2.398-4.254
			c0.562,0,0.967,0.217,1.164,0.406l-0.296,0.955c-0.158-0.107-0.405-0.197-0.642-0.197c-0.84,0-1.244,0.977-1.244,3.049
			c0,2.045,0.396,3.051,1.234,3.051c0.246,0,0.484-0.09,0.641-0.197l0.307,1.037C123.779,73.514,123.375,73.732,122.812,73.732z"/>
		<path fill="#00467F" d="M126.414,73.723c-1.303,0-1.955-1.105-1.955-3.109s0.652-3.109,1.955-3.109s1.955,1.105,1.955,3.109
			S127.717,73.723,126.414,73.723z M126.414,68.471c-0.492,0-0.641,0.691-0.641,2.115c0,1.416,0.148,2.111,0.641,2.111
			c0.493,0,0.643-0.695,0.643-2.111C127.057,69.162,126.907,68.471,126.414,68.471z"/>
		<path fill="#00467F" d="M134.093,73.621V69.25c0-0.484-0.167-0.779-0.592-0.779c-0.218,0-0.384,0.09-0.534,0.248v4.902h-1.281
			v-4.398c0-0.445-0.178-0.752-0.643-0.752c-0.247,0-0.334,0.041-0.482,0.111v5.039h-1.285v-5.725
			c0.356-0.205,0.947-0.393,1.798-0.393c0.759,0,1.095,0.227,1.341,0.514c0.277-0.268,0.752-0.514,1.404-0.514
			c0.967,0,1.558,0.621,1.558,1.689v4.428H134.093z"/>
		<path fill="#00467F" d="M138.346,73.682c-0.333,0-0.521-0.061-0.621-0.107v1.629h-1.283v-7.307
			c0.307-0.205,0.881-0.393,1.67-0.393c1.371,0,2.143,1.027,2.143,3.082C140.254,72.605,139.514,73.682,138.346,73.682z
			 M138.081,68.471c-0.138,0-0.296,0.029-0.356,0.061v4.086c0.061,0.02,0.209,0.049,0.326,0.049c0.709,0,0.898-0.789,0.898-2.092
			C138.949,69.211,138.691,68.471,138.081,68.471z"/>
		<path fill="#00467F" d="M141.169,73.621v-8.289h1.293v8.289H141.169z"/>
		<path fill="#00467F" d="M147.279,70.998l-2.605,0.326c0.029,0.742,0.385,1.303,1.025,1.303c0.525,0,0.949-0.148,1.166-0.287
			l0.297,0.988c-0.308,0.207-0.859,0.395-1.59,0.395c-1.472,0-2.19-1.145-2.19-3.051c0-2.033,0.7-3.168,2.014-3.168
			c1.332,0,1.903,1.193,1.903,2.951C147.299,70.621,147.289,70.811,147.279,70.998z M145.365,68.432c-0.504,0-0.73,0.83-0.711,2.006
			l1.373-0.168C146.017,69.25,145.878,68.432,145.365,68.432z"/>
		<path fill="#00467F" d="M150.408,73.621l-0.701-2.014h-0.02l-0.76,2.014h-1.244l1.354-3.029l-1.273-2.99h1.304l0.679,1.916h0.021
			l0.75-1.916h1.175l-1.273,2.844l1.353,3.176H150.408z"/>
	</g>
	<line fill="none" stroke="#00467F" x1="0" y1="38.955" x2="184.387" y2="38.955"/>
	<g>
		<path fill="#00467F" d="M8.494,61.002l-0.32-6.648c-0.052-0.912-0.018-1.879-0.018-1.879H8.122c0,0-0.152,0.967-0.321,1.879
			l-1.27,6.648H4.806l-1.269-6.648c-0.168-0.881-0.304-1.879-0.304-1.879H3.199c0,0,0,1.018-0.034,1.879l-0.321,6.648H0
			l1.405-14.213H4.35l1.218,5.854c0.17,0.779,0.236,1.658,0.236,1.658h0.035c0,0,0.067-0.879,0.236-1.658l1.217-5.854h2.947
			l1.403,14.213H8.494z"/>
		<path fill="#00467F" d="M16.565,61.207c-2.961,0-3.958-2.709-3.958-7.309c0-4.605,0.997-7.312,3.958-7.312
			c2.962,0,3.961,2.707,3.961,7.312C20.526,58.498,19.527,61.207,16.565,61.207z M16.565,49.16c-0.592,0-0.744,0.928-0.744,4.652
			c0,3.723,0.151,4.652,0.744,4.652c0.593,0,0.746-0.93,0.746-4.652C17.311,50.088,17.158,49.16,16.565,49.16z"/>
		<path fill="#00467F" d="M25.685,61.207c-2.097,0-3.689-1.268-3.689-3.689V46.789h3.148v10.83c0,0.506,0.219,0.795,0.658,0.795
			c0.441,0,0.662-0.289,0.662-0.795v-10.83h2.911v10.729C29.375,59.939,27.782,61.207,25.685,61.207z"/>
		<path fill="#00467F" d="M36.634,61.002l-2.387-6.125c-0.306-0.793-0.56-1.693-0.56-1.693h-0.032c0,0,0.032,0.9,0.032,1.693v6.125
			h-2.639V46.789h2.54l2.045,5.23c0.289,0.725,0.525,1.537,0.525,1.537h0.034c0,0-0.034-0.812-0.034-1.537v-5.23h2.641v14.213
			H36.634z"/>
		<path fill="#00467F" d="M44.939,49.396v11.605h-3.146V49.396h-1.692v-2.607h6.53v2.607H44.939z"/>
		<path fill="#00467F" d="M53.856,61.207c-1.268,0-2.183-0.355-2.656-0.711l0.677-2.537c0.221,0.166,0.745,0.387,1.286,0.387
			c0.575,0,1.083-0.473,1.083-1.115c0-2.285-2.946-3.199-2.946-6.854c0-2.422,1.541-3.791,3.64-3.791
			c1.048,0,1.962,0.354,2.418,0.711l-0.54,2.301c-0.221-0.154-0.729-0.338-1.271-0.338c-0.658,0-1.132,0.49-1.132,1.117
			c0,2.246,3.044,3.146,3.044,6.854C57.46,59.615,55.906,61.207,53.856,61.207z"/>
		<path fill="#00467F" d="M58.865,61.002V46.789h3.148v14.213H58.865z"/>
		<path fill="#00467F" d="M69.271,61.002l-2.386-6.125c-0.305-0.793-0.559-1.693-0.559-1.693h-0.035c0,0,0.035,0.9,0.035,1.693
			v6.125h-2.64V46.789h2.54l2.047,5.23c0.287,0.725,0.526,1.537,0.526,1.537h0.033c0,0-0.033-0.812-0.033-1.537v-5.23h2.64v14.213
			H69.271z"/>
		<path fill="#00467F" d="M77.883,61.002l-0.236-2.031h-1.98l-0.253,2.031h-2.946l2.556-14.213h3.555l2.553,14.213H77.883z
			 M76.903,52.795c-0.135-1.098-0.221-2.35-0.221-2.35h-0.033c0,0-0.084,1.252-0.222,2.35l-0.474,3.844h1.405L76.903,52.795z"/>
		<path fill="#00467F" d="M82.164,61.002V46.789h3.147v14.213H82.164z"/>
		<path fill="#00467F" d="M95.125,61.002v-5.971h-1.354v5.971h-3.146V46.789h3.146v5.637h1.354v-5.637h3.146v14.213H95.125z"/>
		<path fill="#00467F" d="M103.701,61.207c-2.961,0-3.958-2.709-3.958-7.309c0-4.605,0.997-7.312,3.958-7.312
			c2.963,0,3.96,2.707,3.96,7.312C107.661,58.498,106.664,61.207,103.701,61.207z M103.701,49.16c-0.592,0-0.744,0.928-0.744,4.652
			c0,3.723,0.152,4.652,0.744,4.652c0.594,0,0.746-0.93,0.746-4.652C104.447,50.088,104.295,49.16,103.701,49.16z"/>
		<path fill="#00467F" d="M111.418,61.207c-1.27,0-2.182-0.355-2.656-0.711l0.678-2.537c0.218,0.166,0.742,0.387,1.283,0.387
			c0.578,0,1.085-0.473,1.085-1.115c0-2.285-2.945-3.199-2.945-6.854c0-2.422,1.54-3.791,3.638-3.791
			c1.049,0,1.965,0.354,2.42,0.711l-0.539,2.301c-0.222-0.154-0.729-0.338-1.271-0.338c-0.659,0-1.133,0.49-1.133,1.117
			c0,2.246,3.045,3.146,3.045,6.854C115.021,59.615,113.465,61.207,111.418,61.207z"/>
		<path fill="#00467F" d="M119.963,55.334c-0.17,0-0.34-0.016-0.457-0.049v5.717h-3.08V47.297c0.643-0.322,1.69-0.711,3.316-0.711
			c2.979,0,4.367,1.643,4.367,4.266C124.109,53.729,122.551,55.334,119.963,55.334z M119.793,49.057
			c-0.102,0-0.188,0.018-0.287,0.033v3.824c0.084,0.018,0.186,0.018,0.287,0.018c0.797,0,1.201-0.695,1.201-2.049
			C120.994,49.564,120.537,49.057,119.793,49.057z"/>
		<path fill="#00467F" d="M125.41,61.002V46.789h3.148v14.213H125.41z"/>
		<path fill="#00467F" d="M134.699,49.396v11.605h-3.147V49.396h-1.692v-2.607h6.531v2.607H134.699z"/>
		<path fill="#00467F" d="M141.703,61.002l-0.236-2.031h-1.979l-0.254,2.031h-2.943l2.554-14.213h3.554l2.555,14.213H141.703z
			 M140.722,52.795c-0.134-1.098-0.218-2.35-0.218-2.35h-0.035c0,0-0.084,1.252-0.219,2.35l-0.475,3.844h1.404L140.722,52.795z"/>
		<path fill="#00467F" d="M145.984,61.002V46.789h3.148v11.539h2.03v2.674H145.984z"/>
	</g>
	<g>
		<g>
			<polygon fill="#56A0D3" points="179.838,53.895 180.923,48.098 175.422,50.047 176.4,53.895 			"/>
			<polygon fill="#95BDE2" points="175.422,50.047 174.467,46.297 171.861,48.865 172.959,50.922 			"/>
			<polygon fill="#00467F" points="174.551,53.895 176.4,53.895 175.422,50.037 172.959,50.908 			"/>
		</g>
		<g>
			<polygon fill="#56A0D3" points="171.75,71.475 175.947,75.289 177.041,69.406 173.576,68.33 			"/>
			<polygon fill="#95BDE2" points="179.877,66.666 177.55,66.666 177.041,69.406 180.867,70.596 			"/>
			<polygon fill="#00467F" points="174.536,66.666 173.576,68.33 177.041,69.406 177.55,66.666 			"/>
		</g>
		<g>
			<polygon fill="#56A0D3" points="160.871,55.207 155.541,57.096 159.695,60.881 162.447,58.168 			"/>
			<polygon fill="#95BDE2" points="160.971,64.738 161.998,62.973 159.695,60.881 157.023,63.514 			"/>
			<polygon fill="#00467F" points="163.565,60.244 162.447,58.15 159.695,60.857 161.998,62.955 			"/>
		</g>
		<g>
			<polygon fill="#56A0D3" points="180.664,65.01 185.867,63.168 181.713,59.383 179.059,61.998 			"/>
			<polygon fill="#95BDE2" points="180.828,55.646 179.715,57.568 181.713,59.383 184.387,56.75 			"/>
			<polygon fill="#00467F" points="178.143,60.281 179.059,61.998 181.713,59.383 179.715,57.568 			"/>
		</g>
		<g>
			<polygon fill="#56A0D3" points="164.404,50.879 168.268,52.076 169.998,49.088 165.5,44.99 			"/>
			<polygon fill="#95BDE2" points="164.404,50.879 160.578,49.691 161.644,53.895 163.86,53.895 			"/>
			<polygon fill="#00467F" points="163.857,53.9 167.21,53.898 168.268,52.076 164.404,50.879 			"/>
		</g>
		<g>
			<polygon fill="#56A0D3" points="161.584,66.666 160.551,72.213 166.057,70.258 165.145,66.666 			"/>
			<polygon fill="#95BDE2" points="168.639,69.348 166.057,70.258 167.011,74.01 169.711,71.348 			"/>
			<polygon fill="#00467F" points="167.223,66.666 165.145,66.666 166.057,70.258 168.639,69.348 			"/>
		</g>
	</g>
</g>
</svg>
