<?xml version="1.0" encoding="utf-8"?>
<!-- Generator: Adobe Illustrator 16.0.4, SVG Export Plug-In . SVG Version: 6.00 Build 0)  -->
<!DOCTYPE svg PUBLIC "-//W3C//DTD SVG 1.1//EN" "http://www.w3.org/Graphics/SVG/1.1/DTD/svg11.dtd">
<svg version="1.1" id="Layer_1" xmlns="http://www.w3.org/2000/svg" xmlns:xlink="http://www.w3.org/1999/xlink" x="0px" y="0px"
	 width="338.641px" height="145.911px" viewBox="0 0 338.641 145.911" enable-background="new 0 0 338.641 145.911"
	 xml:space="preserve">
<g>
	<path fill="#F58025" d="M24.166,91.906c-0.812-0.271-2.52-0.767-4.282-1.496c-4.657-1.917-8.996-4.687-8.885-9.31
		c0.109-4.42,4.14-7.168,11.458-8.605c8.019-1.57,19.756-2.759,25.688-5.785c5.851-2.628,5.293-9.402,1.766-12.575
		c-0.321-0.31-0.559-0.542-0.749-0.46c-0.248,0.103-0.193,0.308-0.087,0.644c0.312,0.93,0.728,2.658-0.106,4.111
		c-2.872,5.046-18.924,5.021-32.895,7.711C4.534,68.368-0.259,73.859,0.011,79.878c0.275,6.263,6.251,10.968,14.562,12.267
		c3.308,0.517,7.823,0.749,9.417,0.509c0.426-0.062,0.547-0.205,0.535-0.413C24.512,92.069,24.444,91.994,24.166,91.906"/>
	<path fill="#013A81" d="M7.812,64.987c2.657-0.952,6.236-1.82,12.219-2.771c0.851-0.138,1.688-0.281,2.177-0.384
		c0.23-0.04,0.327-0.155,0.358-0.261c0.074-0.25-0.059-0.404-0.485-0.513c-0.511-0.126-1.348-0.258-2.005-0.429
		c-6.513-1.535-7.448-3.457-7.484-5.404c-0.019-1.113,0.484-2.26,1.862-3.217c1.813-1.262,4.892-1.954,6.672-2.329
		c12.497-2.632,31.34-3.042,31.34-19.943c0-6.75-4.187-11.045-7.829-13.338c-2.708-1.696-5.155-2.208-5.155-2.208v6.645
		c0,0,3.928,2.656,3.928,7.771c0,5.741-2.31,12-15.398,14.715c-8.227,1.706-14.158,2.895-18.342,4.666
		c-4.208,1.784-6.829,5.052-7.16,8.085C2.206,58.812,2.891,62.494,7.812,64.987"/>
	<path fill="#013A81" d="M48.907,69.829c-2.562,1.2-5.712,2.239-10.742,3.234c-1.273,0.254-2.159,0.391-2.702,0.495
		c-0.436,0.087-0.539,0.284-0.464,0.5c0.061,0.161,0.196,0.218,0.574,0.305c0.604,0.143,1.569,0.312,2.732,0.645
		c2.873,0.88,4.73,2.082,5.767,3.262c1.042,1.185,1.557,2.627,1.557,4.327c0,1.997-0.629,3.722-1.888,5.187
		c-1.717,1.873-4.554,3.406-8.522,4.604c-1.957,0.595-4.631,1.124-7.743,1.411v5.29c7.891-0.437,15.642-2.363,19.978-5.191
		c4.974-3.221,7.464-7.528,7.464-12.903c0-3.182-0.874-5.929-2.664-8.196C51.106,71.346,49.969,70.523,48.907,69.829"/>
	<path fill="#F58025" d="M14.608,42.819c2.662-0.801,9.727-2.293,9.727-2.298c0.175-0.026,0.347-0.067,0.372-0.248
		c0.013-0.145-0.036-0.287-0.237-0.349c-0.226-0.07-2.677-0.578-5.032-2.124c-3.16-2.078-5.617-5.095-5.456-9.505
		c0.195-5.883,5.045-9.591,10.625-11.316c5.061-1.552,9.67-2.241,12.557-4.095C42.644,9.365,42.068,3.543,39,0.606
		c-0.424-0.4-0.699-0.692-0.929-0.583c-0.206,0.105-0.176,0.354-0.056,0.659c0.274,0.714,0.9,2.474,0.086,4.071
		c-1.517,2.958-9.846,4.012-16.121,5.356c-8.377,1.787-12.868,4.496-16.188,8.586c-1.98,2.448-3.217,6.008-3.217,9.599
		C2.577,36.371,8.763,40.613,14.608,42.819"/>
</g>
<g>
	<path fill="#013A81" d="M191.273,138.332c0,1.836,0.077,3.668,0.116,5.504l-0.201,0.318c-2.789,0.916-5.302,1.757-9.409,1.757
		c-2.468,0-4.178-0.363-5.34-0.68c-1.553-0.445-4.468-1.396-6.819-4.426c-1.79-2.307-2.788-5.454-2.788-9.204
		c0-2.674,0.601-5.905,2.034-8.415c3.15-5.341,8.132-6.615,12.681-6.615c4.142,0,6.809,1.111,8.48,1.829l0.207,0.235
		c-0.32,2.398-0.402,3.032-0.599,5.507l-0.317,0.121c-1.876-1.239-3.671-2.436-6.7-2.436c-5.018,0-8.408,3.432-8.408,9.731
		c0,2.989,1.116,8.89,7.297,8.89c1.111,0,1.908-0.202,2.982-0.439c0.082-3.623,0.048-4.585-0.317-8.492l0.203-0.246l6.775-0.118
		l0.199,0.246c-0.041,2.032-0.077,4.025-0.077,6.021V138.332z"/>
	<path fill="#013A81" d="M233.771,145.303c-3.04,0-3.684,0.033-6.195,0.11l-0.23-0.222c0-1.298,0.039-2.63,0.039-3.923
		c0-1.442-0.039-6.65-0.113-7.903c-0.11-1.368-0.308-3.613-2.397-3.613c-1.211,0-2.129,0.646-2.925,1.178
		c0.036,6.801,0.072,8.289,0.303,14.146l-0.23,0.228c-3.038,0-3.612,0-6.345,0.11l-0.232-0.222c0.038-2.442,0.078-4.874,0.078-7.303
		c0-6.195-0.228-8.594-0.529-11.903l0.229-0.261c2.846-0.382,3.493-0.497,6.423-1.107l0.377,0.262l-0.072,2.092
		c1.749-1.023,3.764-2.241,6.081-2.241c1.367,0,3.539,0.305,4.713,2.284c0.953,1.561,0.993,3.303,1.028,6.962v2.959
		c0.074,3.729,0.074,4.794,0.26,8.141L233.771,145.303z"/>
	<path fill="#013A81" d="M250.387,135.188c0,3.116-0.422,6.579-3.577,6.579c-0.985,0-1.672-0.462-2.125-0.876
		c-0.646-0.644-1.372-1.938-1.372-5.626c0-1.104,0-3.538,0.762-4.867c0.569-1.026,1.554-1.708,2.774-1.708
		c1.062,0,1.938,0.566,2.436,1.177C250.197,130.971,250.387,133.128,250.387,135.188z M256.961,135.227c0-1.485,0-7.646-5.324-9.729
		c-1.672-0.653-3.647-0.729-4.636-0.729c-6.623,0-10.343,3.538-10.343,10.527c0,2.434,0.383,4.907,1.791,6.971
		c0.987,1.468,2.845,3.53,8.29,3.53C254.794,145.798,256.961,140.933,256.961,135.227z"/>
	<path fill="#013A81" d="M289.275,145.303c-2.656,0-3.493,0-6.347,0.11l-0.231-0.222c0.041-1.146,0.079-6.815,0.115-8.103
		c0-0.727,0.04-1.446,0.04-2.167c0-3.266-0.346-5.322-2.507-5.322c-1.144,0-1.986,0.53-2.625,0.948l0.037,3.842v1.403
		c0.037,4.602,0.073,5.668,0.296,9.282l-0.223,0.228c-2.623,0-3.422,0-6.308,0.15l-0.229-0.262c0.076-3.085,0.115-3.923,0.115-9.439
		c0-3.265-0.081-5.958-2.438-5.958c-0.947,0-1.826,0.489-2.617,1.062c0.035,6.608,0.074,8.363,0.338,14.22l-0.228,0.228
		c-3.154,0-3.988,0.033-6.423,0.11l-0.191-0.222c0-2.165,0.041-4.38,0.041-6.544c0-7.528-0.233-9.627-0.535-12.662l0.228-0.261
		c2.658-0.382,3.497-0.531,6.461-1.107l0.345,0.349v2.126c1.748-1.224,3.385-2.362,5.892-2.362c3.046,0,3.989,1.601,4.526,2.474
		c1.518-1.065,3.608-2.474,6.729-2.474c0.606,0,3.229,0,4.707,2.169c1.113,1.6,1.069,3.957,1.032,6.505v2.85
		c0,4.296,0.037,5.283,0.231,8.822L289.275,145.303z"/>
	<path fill="#013A81" d="M299.275,130.855c0.038,6.608,0.072,8.363,0.342,14.22l-0.231,0.228c-3.156,0-3.988,0.033-6.423,0.11
		l-0.188-0.222c0-2.165,0.038-4.38,0.038-6.544c0-7.528-0.231-9.627-0.535-12.662l0.229-0.261c2.657-0.382,3.495-0.531,6.46-1.107
		l0.347,0.349v2.126L299.275,130.855z"/>
	<path fill="#013A81" d="M212.671,136.441c-0.039-1.861-0.034-4.022-0.57-5.354c-0.457-1.131-2.55-4.052-7.5-2.198
		c-0.057,0.018-0.155,0.047-0.202,0.122c-0.073,0.104,0.047,0.184,0.047,0.184c1.301,0.567,2.066,1.622,2.066,3.559l-6.344,0.151
		c0,0-0.255-1.382,0.617-3.167c0.7-1.461,2.465-3.519,6.013-4.228c1.422-0.223,1.694-0.063,1.854-0.108
		c0.023,0,0.185-0.077,0.027-0.169c0.014,0-0.153-0.105-0.393-0.148c-0.632-0.206-2.02-0.521-4.468-0.521
		c-5.973,0-9.928,4.085-9.928,10.663c0,1.787,0.302,3.653,0.912,4.978c2.204,5.132,7.373,5.594,10.117,5.594
		c3.149,0,4.522-0.57,6.538-1.375l0.229-0.3l0.257-4.297l-0.257-0.112c-1.448,0.758-3.162,1.632-5.941,1.632
		c-2.272,0-3.835-0.723-4.748-2.096c-0.571-0.795-0.68-1.556-0.83-2.315l12.276-0.226L212.671,136.441z"/>
	<path fill="#013A81" d="M318.69,140.311l0.732,4.151l-0.075,0.204c0.019,0.038-0.028,0.193-0.112,0.228
		c-1.357,0.555-3.602,0.948-6.109,0.948c-7.004,0-11.431-4.151-11.431-10.411c0-5.794,4.162-10.79,12.314-10.79
		c1.715,0,3.658,0.28,5.2,0.81c0.069,0.024,0.084,0.048,0.118,0.144l0.056,0.076l-0.953,4.297l-0.152,0.212
		c-0.016,0.021-0.096,0.081-0.183,0.042c-0.857-0.346-2.038-0.624-3.764-0.624c-3.562,0-5.897,2.318-5.86,5.555
		c0,3.729,2.8,5.602,6.019,5.602c1.554,0,2.771-0.245,3.794-0.602c0.122-0.044,0.116,0.102,0.232,0.057L318.69,140.311z"/>
	<path fill="#013A81" d="M322.272,143.996l1.044-4.051l0.143-0.097c0.172-0.056,0.118-0.065,0.228-0.011
		c1.355,0.729,3.826,1.477,5.664,1.477c2.064,0,2.877-0.644,2.877-1.623c0-1.044-0.658-1.509-3.167-2.203
		c-4.505-1.223-6.345-3.57-6.31-6.12c0-3.849,3.401-6.728,8.733-6.728c2.439,0,4.661,0.532,5.989,1.141
		c0.082,0.037,0.11,0.137,0.13,0.157l0.049,0.181l-0.999,3.888l-0.142,0.152c-0.114,0.076-0.143,0.092-0.256,0.04
		c-1.036-0.479-2.861-1.099-4.587-1.099c-1.587,0-2.545,0.546-2.545,1.597c0,0.995,0.914,1.503,3.585,2.265
		c4.12,1.174,5.896,3.102,5.932,6.269c0,3.646-2.937,6.611-9.262,6.611c-2.82,0-5.222-0.588-6.95-1.395
		c-0.086-0.039-0.042-0.143-0.114-0.261L322.272,143.996z"/>
	<path fill="#013A81" d="M299.353,119.21c0,1.857-1.641,3.362-3.666,3.362c-2.031,0-3.672-1.505-3.672-3.362
		c0-1.86,1.641-3.363,3.672-3.363C297.712,115.847,299.353,117.35,299.353,119.21z"/>
	<path fill="#013A81" d="M50.909,131.885c0,3.223-0.758,8.378-4.508,11.489c-2.238,1.854-5.196,2.537-8.115,2.537
		c-1.933,0-5.875-0.38-8.754-3.07c-3.564-3.298-3.868-8.149-3.868-10.729c0-1.288,0.114-2.575,0.343-3.867
		c0.303-1.592,1.135-5.989,5.761-8.64c2.045-1.177,4.434-1.594,6.785-1.594c2.652,0,5.307,0.646,7.241,1.935
		c0.87,0.568,1.628,1.29,2.273,2.122C49.012,123.242,50.909,125.935,50.909,131.885z M38.4,122.75c-0.721,0-1.743,0.152-2.769,0.759
		c-1.779,1.138-2.88,3.487-2.88,8.035c0,3.412,0.342,9.551,5.61,9.551c4.4,0,5.608-4.093,5.461-9.778
		c-0.041-0.947-0.115-2.311-0.417-3.752c-0.229-1.098-0.572-2.2-1.329-3.069C41.167,123.394,39.841,122.75,38.4,122.75z"/>
	<path fill="#013A81" d="M73.087,145.303c-3.033,0-3.678,0.04-6.181,0.113l-0.228-0.225c0-1.289,0.038-2.62,0.038-3.906
		c0-1.438-0.038-6.632-0.113-7.884c-0.114-1.366-0.302-3.603-2.391-3.603c-1.21,0-2.121,0.646-2.916,1.179
		c0.036,6.783,0.077,8.262,0.304,14.099l-0.227,0.227c-3.035,0-3.602,0-6.333,0.113l-0.228-0.225
		c0.039-2.426,0.076-4.854,0.076-7.279c0-6.179-0.228-8.565-0.53-11.867l0.227-0.264c2.844-0.378,3.49-0.49,6.407-1.098l0.38,0.264
		l-0.077,2.086c1.741-1.024,3.752-2.237,6.066-2.237c1.362,0,3.524,0.303,4.699,2.275c0.947,1.553,0.986,3.298,1.025,6.934v2.962
		c0.074,3.714,0.074,4.774,0.264,8.109L73.087,145.303z"/>
	<path fill="#013A81" d="M88.593,141.133l-0.384,3.903l-0.264,0.267c-1.327,0.229-2.502,0.458-3.979,0.458
		c-5.915,0-5.989-3.754-5.989-7.242c0-0.982,0.036-1.934,0.074-2.882l0.113-6.026l-2.386,0.079l-0.229-0.229l0.34-4.058l0.229-0.188
		l2.046,0.076l-0.035-4.741l0.149-0.265c2.692-0.68,3.374-0.869,5.951-1.628l0.266,0.226l-0.112,6.366h3.786l0.231,0.229
		l-0.379,4.059l-0.228,0.226l-3.41-0.152l-0.076,5.346c-0.04,1.517-0.04,3.601,0.076,4.587c0.075,0.569,0.227,1.782,2.161,1.782
		c0.643,0,1.099-0.153,1.744-0.339L88.593,141.133z"/>
	<path fill="#013A81" d="M107.923,136.851c0,3.562,0,4.512,0.265,8.226l-0.191,0.267c-2.463-0.04-3.297,0-6.027,0.115l-0.225-0.267
		v-1.403c-0.796,0.645-2.43,2.01-5.269,2.01c-3.718,0-6.634-2.617-6.634-6.673c0-1.704,0.718-3.867,2.842-5.194
		c2.275-1.4,4.396-1.818,8.946-2.426c0-0.568-0.113-1.249-0.491-1.629c-0.493-0.494-1.064-0.722-2.466-0.722
		c-2.539,0-5.002,0.987-6.325,1.52l-0.306-0.152l0.188-4.134l0.225-0.304c2.166-0.642,4.173-1.252,7.433-1.252
		c4.853,0,6.369,1.52,7.123,2.732c0.987,1.59,0.987,3.069,0.952,6.481L107.923,136.851z M101.707,135.485
		c-2.579,0.343-5.574,0.761-5.574,3.261c0,1.592,1.138,2.314,2.501,2.314c1.252,0,2.275-0.531,3.072-0.987V135.485z"/>
	<path fill="#013A81" d="M123.01,131.432c-0.53-0.304-0.909-0.531-1.554-0.531c-2.579,0-2.579,2.501-2.579,4.207
		c0,2.615,0.229,6.899,0.38,9.969l-0.189,0.267c-3.032-0.04-3.636,0-6.445,0.115l-0.227-0.229c0.073-3.146,0.113-6.254,0.113-9.364
		c0-5.269-0.113-6.975-0.341-9.819l0.228-0.225c2.765-0.417,3.488-0.529,6.293-1.137l0.302,0.302l-0.113,3.488
		c1.211-2.804,2.957-3.678,4.509-3.678c0.268,0,0.53,0.036,0.799,0.036l0.228,0.267l-1.062,6.182L123.01,131.432z"/>
	<path fill="#013A81" d="M146.778,145.798c-5.42,0-7.278-2.05-8.264-3.528c-1.404-2.042-1.782-4.509-1.782-6.936
		c0-6.974,3.716-10.502,10.312-10.502c0.984,0,2.957,0.08,4.623,0.723c5.309,2.086,5.309,8.228,5.309,9.703
		C156.975,140.944,154.813,145.798,146.778,145.798z M149.316,129.913c-0.49-0.606-1.363-1.173-2.423-1.173
		c-1.213,0-2.199,0.684-2.766,1.704c-0.761,1.325-0.761,3.753-0.761,4.853c0,3.678,0.718,4.966,1.364,5.611
		c0.456,0.417,1.133,0.871,2.119,0.871c3.151,0,3.569-3.451,3.569-6.558C150.419,133.172,150.229,131.013,149.316,129.913z"/>
	<path fill="#013A81" d="M133.491,130.898c0.041,6.612,0.076,8.361,0.342,14.224l-0.227,0.227c-3.158,0-3.992,0.03-6.427,0.109
		l-0.188-0.226c0-2.165,0.043-4.375,0.043-6.544c0-7.527-0.237-9.621-0.538-12.662l0.231-0.26c2.653-0.382,3.497-0.533,6.458-1.107
		l0.347,0.349v2.128L133.491,130.898z"/>
	<ellipse fill="#013A81" cx="129.902" cy="119.252" rx="3.67" ry="3.364"/>
</g>
</svg>
