<?xml version="1.0" encoding="utf-8"?>
<!-- Generator: Adobe Illustrator 16.0.4, SVG Export Plug-In . SVG Version: 6.00 Build 0)  -->
<!DOCTYPE svg PUBLIC "-//W3C//DTD SVG 1.1//EN" "http://www.w3.org/Graphics/SVG/1.1/DTD/svg11.dtd">
<svg version="1.1" id="Layer_1" xmlns="http://www.w3.org/2000/svg" xmlns:xlink="http://www.w3.org/1999/xlink" x="0px" y="0px"
	 width="130px" height="184.733px" viewBox="0 0 130 184.733" enable-background="new 0 0 130 184.733" xml:space="preserve">
<circle fill="none" stroke="#763626" stroke-width="5" stroke-miterlimit="10" cx="65" cy="119.733" r="62.5"/>
<g>
	<circle fill="#763626" cx="43.908" cy="102.844" r="10"/>
	<circle fill="#763626" cx="85.908" cy="102.844" r="10"/>
	<circle fill="#763626" cx="66.248" cy="144.184" r="14.25"/>
	<line fill="none" stroke="#763626" stroke-width="5" stroke-miterlimit="10" x1="32.535" y1="86.659" x2="49.785" y2="81.034"/>
	<line fill="none" stroke="#763626" stroke-width="5" stroke-miterlimit="10" x1="97.465" y1="86.853" x2="80.214" y2="81.228"/>
</g>
<path fill="#763626" d="M71.988,37.382v2.446c0,0.913-0.583,1.688-1.397,1.977v0.818c0,1.157-0.938,2.097-2.097,2.097h-6.987
	c-1.158,0-2.097-0.939-2.097-2.097v-0.818c-0.813-0.288-1.397-1.063-1.397-1.977v-2.446c0-0.578,0.47-1.047,1.049-1.047H70.94
	C71.518,36.335,71.988,36.804,71.988,37.382z M59.488,33.54c-0.865,0-1.645-0.53-1.954-1.339c-3.391-8.833-7.906-7.942-7.906-16.828
	C49.627,6.883,56.511,0,65,0c8.49,0,15.373,6.883,15.373,15.373c0,8.886-4.516,7.995-7.906,16.828
	c-0.31,0.809-1.089,1.339-1.954,1.339H59.488z M58.012,15.373c0-3.853,3.135-6.987,6.987-6.987c0.772,0,1.397-0.626,1.397-1.397
	c0-0.772-0.625-1.398-1.397-1.398c-5.394,0-9.782,4.388-9.782,9.783c0,0.771,0.626,1.397,1.397,1.397
	C57.387,16.77,58.012,16.144,58.012,15.373z"/>
</svg>
