<?xml version="1.0" encoding="utf-8"?>
<!-- Generator: Adobe Illustrator 16.0.4, SVG Export Plug-In . SVG Version: 6.00 Build 0)  -->
<!DOCTYPE svg PUBLIC "-//W3C//DTD SVG 1.1//EN" "http://www.w3.org/Graphics/SVG/1.1/DTD/svg11.dtd">
<svg version="1.1" id="Layer_1" xmlns="http://www.w3.org/2000/svg" xmlns:xlink="http://www.w3.org/1999/xlink" x="0px" y="0px"
	 width="1000px" height="1000px" viewBox="0 0 1000 1000" enable-background="new 0 0 1000 1000" xml:space="preserve">
<path fill="#2A3132" d="M499.999,715.307c-61.468,0-120.163-26.393-161.03-72.408l-4.566-5.143H146.939V362.244h187.463l4.566-5.143
	c40.005-45.049,97.098-71.271,157.155-72.356c0.062-0.415,0.168-0.83,0.376-1.245c0,0,2,0,3,0
	c-1.208-9.662,0.499-19.688,0.501-29.418c0,0,0,0-0.001,0c-67.891,0-132.811,28.18-179.221,77.551h-173.84v-26.531
	c0-19.691-16.021-35.715-35.715-35.715h-75.51C16.021,269.387,0,285.41,0,305.102v389.795c0,19.691,16.021,35.715,35.715,35.715
	h75.51c19.691,0,35.715-16.023,35.715-35.715v-26.531h173.842c46.206,49.151,110.755,77.289,178.315,77.539
	C499.252,735.7,500.069,725.428,499.999,715.307z M116.328,392.422H73.297v30.611h43.031v30.904H73.297v30.611h43.031v30.904H73.297
	v30.611h43.031v30.904H73.297v30.611h43.031v30.906H73.297v30.611h43.031v25.797c0,2.814-2.289,5.102-5.102,5.102H35.715
	c-2.812,0-5.102-2.287-5.102-5.102V305.102c0-2.814,2.289-5.102,5.102-5.102h75.51c2.812,0,5.102,2.287,5.102,5.102v25.803H73.297
	v30.611h43.031V392.422z"/>
<path fill="#2A3132" d="M964.285,269.387h-75.51c-19.691,0-35.715,16.021-35.715,35.715v26.531h-173.84
	c-46.41-49.371-111.329-77.55-179.22-77.551c-0.002,9.73-1.708,19.756-0.501,29.418c-1,0-3,0-3,0
	c-0.208,0.415-0.314,0.83-0.376,1.245c1.291-0.023,2.582-0.052,3.876-0.052c61.473,0,120.166,26.393,161.031,72.408l4.566,5.143
	h187.463v275.512H665.598l-4.566,5.143c-40.867,46.016-99.561,72.408-161.031,72.408c0,0-0.001,0-0.001,0
	c0.071,10.121-0.747,20.394-0.902,30.598c0.302,0.001,0.604,0.012,0.906,0.012c67.889,0,132.809-28.18,179.221-77.551h173.84v26.531
	c0,19.691,16.021,35.715,35.715,35.715h75.51c19.691,0,35.715-16.023,35.715-35.715V305.102
	C1000,285.41,983.979,269.387,964.285,269.387z M969.389,694.898c0,2.814-2.289,5.102-5.102,5.102h-75.51
	c-2.812,0-5.102-2.287-5.102-5.102v-25.801h43.031v-30.613h-43.031v-30.906h43.031v-30.611h-43.031v-30.904h43.031v-30.611h-43.031
	v-30.904h43.031v-30.611h-43.031v-30.904h43.031V392.42h-43.031v-30.906h43.031v-30.611h-43.031v-25.797
	c0-2.814,2.289-5.102,5.102-5.102h75.51c2.812,0,5.102,2.287,5.102,5.102V694.898z"/>
<g>
	<g>
		<path fill="#2A3132" d="M361.859,377.43l-13.699,15.426h-87.955v30.611h101.709l22.834-25.713
			c29.258-32.945,71.266-51.838,115.254-51.838v-30.611C447.271,315.307,396.92,337.951,361.859,377.43z"/>
	</g>
</g>
<g>
	<g>
		<rect x="192.857" y="392.857" fill="#2A3132" width="30.611" height="30.611"/>
	</g>
</g>
</svg>
